<svg width="400" height="400" xmlns="http://www.w3.org/2000/svg">

 <g>
  <title>Layer 1</title>
  <g stroke="null">
   <g stroke="null">
    <title stroke="null">Layer 1</title>
    <ellipse stroke="#000" fill="#fff" cx="289.3414" cy="154.57622" id="svg_36"/>
    <ellipse stroke="#000" transform="matrix(-0.1095 0.675033 -0.729997 -0.101255 336.525 -37.021)" fill="#fff" cx="314.06786" cy="-0.67669" id="svg_35"/>
    <ellipse stroke="#000" id="svg_34" cy="138.19417" cx="198.54729" fill="#fff"/>
    <g stroke="null" id="svg_19">
     <path stroke="null" fill="#FFA15A" d="m201.38073,170.65186l-198.63277,0s4.53064,162.31966 198.63277,230.07927c194.10213,-67.75961 198.63277,-230.07927 198.63277,-230.07927l-198.63277,0z" id="svg_33"/>
     <path stroke="null" fill="#EA6F1C" d="m397.86741,179.24823c0,14.15873 -86.79751,25.53627 -196.48668,25.53627s-196.48668,-11.37755 -196.48668,-25.53627s86.79751,-25.53627 196.48668,-25.53627s196.48668,11.37755 196.48668,25.53627z" id="svg_32"/>
     <path stroke="null" fill="#FF934A" d="m201.38073,400.73113c10.25356,-3.53968 20.0302,-7.58503 29.32993,-11.63038c-126.61944,-29.32879 -192.90985,-158.77998 -216.99378,-218.44888l-10.96892,0s4.53064,162.31966 198.63277,230.07927l0,-0.00001z" id="svg_31"/>
     <path stroke="null" fill="#FFB07B" d="m347.31501,170.65186l-16.69183,82.424l-9.06128,36.40815l-93.7127,39.94783l22.89165,26.54761l-97.05107,24.52494c14.54574,7.33219 30.28375,14.15873 47.9294,20.47958c194.10213,-67.75961 198.63277,-230.07927 198.63277,-230.07927l-52.93694,0l0,-0.25284l0.00001,0z" id="svg_30"/>
     <path stroke="null" fill="#FFC494" d="m2.74796,171.91603a198.63277,25.53627 0 1 0 397.26554,0a198.63277,25.53627 0 1 0 -397.26554,0z" id="svg_29"/>
     <path stroke="null" fill="#FFD2B0" d="m204.48064,146.37976l108.9738,27.81178l25.2762,15.92857c37.9143,-4.55102 61.52131,-11.12471 61.52131,-18.45691c0,-13.65305 -87.51287,-25.0306 -195.77131,-25.28344z" id="svg_28"/>
     <path stroke="null" fill="#EA6F1C" d="m168.23553,174.95004a27.42229,11.37755 0 1 0 54.84459,0a27.42229,11.37755 0 1 0 -54.84459,0z" id="svg_27"/>
     <path stroke="null" fill="#FFA15A" d="m219.26483,179.24823l-35.52975,0l0,-163.07816c0,-6.32086 4.7691,-11.37755 10.73046,-11.37755l14.06883,0c5.96137,0 10.73046,5.05669 10.73046,11.37755l0,163.07816z" id="svg_26"/>
     <path stroke="null" fill="#EA6F1C" d="m189.9349,4.79252l-2.38455,0c-2.14609,0 -3.81527,1.76984 -3.81527,4.04535l0,170.41036l6.19982,0l0,-174.4557z" id="svg_25"/>
     <path stroke="null" fill="#FFC494" d="m183.73508,6.56236a17.64565,5.56236 0 1 0 35.2913,0a17.64565,5.56236 0 1 0 -35.2913,0z" id="svg_24"/>
     <path stroke="null" fill="#FFC494" d="m183.73508,6.56236a17.64565,5.56236 0 1 0 35.2913,0a17.64565,5.56236 0 1 0 -35.2913,0z" id="svg_23"/>
     <path stroke="null" fill="#FFA15A" d="m219.26483,18.95124l0,-12.64172l-7.15364,0l0,12.64172l7.15364,0z" id="svg_22"/>
     <path stroke="null" fill="#EA6F1C" d="m189.9349,18.95124l0,-12.64172l-6.19982,0l0,12.64172l6.19982,0z" id="svg_21"/>
     <path stroke="null" fill="#FFC494" d="m183.73508,6.56236a17.64565,5.56236 0 1 0 35.2913,0a17.64565,5.56236 0 1 0 -35.2913,0z" id="svg_20"/>
    </g>
   </g>
  </g>
 </g>
</svg>