<svg width="800" height="600" xmlns="http://www.w3.org/2000/svg" stroke="null">
 <g stroke="null">
  <title stroke="null">Layer 1</title>
  <ellipse id="svg_5" cy="233" cx="513.5" fill="#fff" stroke="#000"/>
  <ellipse transform="rotate(98.5308 531.5 263)" id="svg_6" cy="263" cx="531.5" fill="#fff" stroke="#000"/>
  <ellipse fill="#fff" cx="390.5" cy="209" id="svg_1" stroke="#000"/>
  <g id="svg_2" stroke="null">
   <path id="svg_3" d="m394.3385,256.55112l-269.09049,0s6.13772,237.80134 269.09049,337.07043c262.95277,-99.26909 269.09049,-337.07043 269.09049,-337.07043l-269.09049,0z" fill="#FFA15A" stroke="null"/>
   <path id="svg_4" d="m660.52165,269.14496c0,20.7428 -117.58576,37.41111 -266.18315,37.41111s-266.18315,-16.66832 -266.18315,-37.41111s117.58576,-37.41111 266.18315,-37.41111s266.18315,16.66832 266.18315,37.41111z" fill="#EA6F1C" stroke="null"/>
   <path id="svg_7" d="m394.3385,593.62155c13.89063,-5.1857 27.13518,-11.11221 39.73365,-17.03872c-171.53307,-42.96722 -261.33758,-232.61564 -293.9644,-320.0317l-14.85974,0s6.13772,237.80134 269.09049,337.07043l0,-0.00001z" fill="#FF934A" stroke="null"/>
   <path id="svg_8" d="m592.03763,256.55112l-22.61265,120.7527l-12.27544,53.33862l-126.95386,58.52432l31.01163,38.89274l-131.47639,35.92949c19.70531,10.7418 41.0258,20.7428 64.9306,30.00297c262.95277,-99.26909 269.09049,-337.07043 269.09049,-337.07043l-71.71439,0l0,-0.37041l0.00001,0z" fill="#FFB07B" stroke="null"/>
   <path id="svg_9" d="m125.248,258.40316a269.09049,37.41111 0 1 0 538.18098,0a269.09049,37.41111 0 1 0 -538.18098,0z" fill="#FFC494" stroke="null"/>
   <path id="svg_10" d="m398.53799,220.99204l147.62828,40.74478l34.24201,23.33565c51.36301,-6.66733 83.34375,-16.29791 83.34375,-27.03972c0,-20.00198 -118.55487,-36.6703 -265.21404,-37.04071z" fill="#FFD2B0" stroke="null"/>
   <path id="svg_11" d="m349.43624,262.84804a37.14935,16.66832 0 1 0 74.2987,0a37.14935,16.66832 0 1 0 -74.2987,0z" fill="#EA6F1C" stroke="null"/>
   <path id="svg_12" d="m418.56633,269.14496l-48.13263,0l0,-238.91256c0,-9.26018 6.46076,-16.66832 14.5367,-16.66832l19.05923,0c8.07595,0 14.5367,7.40814 14.5367,16.66832l0,238.91256z" fill="#FFA15A" stroke="null"/>
   <path id="svg_13" d="m378.83268,13.56409l-3.23038,0c-2.90734,0 -5.1686,2.59285 -5.1686,5.92651l0,249.65436l8.39898,0l0,-255.58087z" fill="#EA6F1C" stroke="null"/>
   <path id="svg_14" d="m370.4337,16.15693a23.9048,8.14896 0 1 0 47.8096,0a23.9048,8.14896 0 1 0 -47.8096,0z" fill="#FFC494" stroke="null"/>
   <path id="svg_15" d="m370.4337,16.15693a23.9048,8.14896 0 1 0 47.8096,0a23.9048,8.14896 0 1 0 -47.8096,0z" fill="#FFC494" stroke="null"/>
   <path id="svg_16" d="m418.56633,34.30688l0,-18.52035l-9.69113,0l0,18.52035l9.69113,0z" fill="#FFA15A" stroke="null"/>
   <path id="svg_17" d="m378.83268,34.30688l0,-18.52035l-8.39898,0l0,18.52035l8.39898,0z" fill="#EA6F1C" stroke="null"/>
   <path id="svg_18" d="m370.4337,16.15693a23.9048,8.14896 0 1 0 47.8096,0a23.9048,8.14896 0 1 0 -47.8096,0z" fill="#FFC494" stroke="null"/>
  </g>
 </g>

</svg>