<?xml version="1.0" standalone="no"?><!DOCTYPE svg PUBLIC "-//W3C//DTD SVG 1.1//EN" "http://www.w3.org/Graphics/SVG/1.1/DTD/svg11.dtd"><svg class="icon" width="200px" height="200.00px" viewBox="0 0 1024 1024" version="1.1" xmlns="http://www.w3.org/2000/svg"><path d="M510.464 450.56H83.968s9.728 328.704 426.496 465.92c416.768-137.216 426.496-465.92 426.496-465.92H510.464z" fill="#FFA15A" /><path d="M932.352 467.968c0 28.672-186.368 51.712-421.888 51.712S88.576 496.64 88.576 467.968s186.368-51.712 421.888-51.712 421.888 23.04 421.888 51.712z" fill="#EA6F1C" /><path d="M510.464 916.48c22.016-7.168 43.008-15.36 62.976-23.552-271.872-59.392-414.208-321.536-465.92-442.368h-23.552s9.728 328.704 426.496 465.92z" fill="#FF934A" /><path d="M823.808 450.56l-35.84 166.912-19.456 73.728-201.216 80.896 49.152 53.76-208.384 49.664c31.232 14.848 65.024 28.672 102.912 41.472 416.768-137.216 426.496-465.92 426.496-465.92h-113.664z" fill="#FFB07B" /><path d="M83.968 453.12a426.496 51.712 0 1 0 852.992 0 426.496 51.712 0 1 0-852.992 0Z" fill="#FFC494" /><path d="M517.12 401.408l233.984 56.32 54.272 32.256c81.408-9.216 132.096-22.528 132.096-37.376 0-27.648-187.904-50.688-420.352-51.2z" fill="#FFD2B0" /><path d="M439.296 459.264a58.88 23.04 0 1 0 117.76 0 58.88 23.04 0 1 0-117.76 0Z" fill="#EA6F1C" /><path d="M548.864 467.968H472.576V137.728c0-12.8 10.24-23.04 23.04-23.04h30.208c12.8 0 23.04 10.24 23.04 23.04v330.24z" fill="#FFA15A" /><path d="M485.888 114.688h-5.12c-4.608 0-8.192 3.584-8.192 8.192v345.088h13.312v-353.28z" fill="#EA6F1C" /><path d="M472.576 118.272a37.888 11.264 0 1 0 75.776 0 37.888 11.264 0 1 0-75.776 0Z" fill="#FFC494" /><path d="M472.576 118.272a37.888 11.264 0 1 0 75.776 0 37.888 11.264 0 1 0-75.776 0Z" fill="#FFC494" /><path d="M548.864 143.36v-25.6h-15.36v25.6z" fill="#FFA15A" /><path d="M485.888 143.36v-25.6h-13.312v25.6z" fill="#EA6F1C" /><path d="M472.576 118.272a37.888 11.264 0 1 0 75.776 0 37.888 11.264 0 1 0-75.776 0Z" fill="#FFC494" /></svg>